<?xml version="1.0" encoding="UTF-8"?>
<svg id="Calque_2" data-name="Calque 2" xmlns="http://www.w3.org/2000/svg" viewBox="0 0 1200 630">
  <defs>
    <style>
      .cls-1 {
        fill: #fff;
      }

      .cls-2 {
        fill: #003;
      }

      .cls-3 {
        fill: #181830;
      }
    </style>
  </defs>
  <g id="Calque_1" data-name="Calque 1">
    <rect class="cls-1" width="1200" height="630"/>
    <g>
      <path class="cls-3" d="M90.08,359.66v-179.45h70.27c59.4,0,89.1,28.28,89.1,84.83,0,63.08-29.7,94.62-89.1,94.62h-70.27ZM160.35,330.8c37.23,0,55.84-21.92,55.84-65.76,0-37.31-18.62-55.97-55.84-55.97h-37.02v121.72h37.02,0Z"/>
      <path class="cls-3" d="M277.68,289.14v-108.92h33.25v108.92c0,28.61,14.64,42.92,43.92,42.92s43.92-14.31,43.92-42.92v-108.92h33.25v108.92c0,47.85-25.72,71.78-77.17,71.78s-77.18-23.93-77.18-71.78h.01Z"/>
      <path class="cls-3" d="M466.54,352.13v-30.12c17.99,6.69,38.32,10.04,60.99,10.04,27.52,0,41.29-9.2,41.29-27.61,0-13.38-8.45-20.08-25.35-20.08h-28.11c-36.73,0-55.09-16.73-55.09-50.2,0-36.81,26.14-55.21,78.43-55.21,20.08,0,39.11,2.93,57.1,8.78v30.12c-17.99-6.69-37.02-10.04-57.1-10.04-30.12,0-45.18,8.78-45.18,26.35,0,13.39,7.28,20.08,21.83,20.08h28.11c39.07,0,58.6,16.73,58.6,50.2,0,37.65-24.85,56.47-74.54,56.47-22.67,0-43-2.93-60.99-8.78h.01Z"/>
      <path class="cls-3" d="M648.97,359.66h-34.09l76.07-179.6h35.71l77.7,179.6h-35.71l-20.43-48.98h-59.52l11.4-28.89h36.09l-28.2-67.45-59.02,145.32Z"/>
      <path class="cls-3" d="M826.32,359.41v-179.2h81.57c36.64,0,54.96,16.02,54.96,48.06,0,21.67-14.26,39.61-42.79,53.83l56.85,77.55h-41.91l-54.59-78.18v-15.18c31.79-5.44,47.69-17.78,47.69-37.02,0-13.22-7.45-19.83-22.34-19.83h-45.55v149.96h-33.89Z"/>
      <path class="cls-3" d="M1109.92,180.22v28.86h-51.45v150.59h-33.25v-150.59h-51.45v-28.86h136.15Z"/>
    </g>
    <g>
      <path class="cls-2" d="M135.67,473.18v-48.88h19.14c16.18,0,24.27,7.7,24.27,23.11,0,17.18-8.09,25.77-24.27,25.77h-19.14ZM154.81,465.32c10.14,0,15.21-5.97,15.21-17.91,0-10.16-5.07-15.24-15.21-15.24h-10.08v33.15h10.08Z"/>
      <path class="cls-2" d="M201.81,424.31v34.79c0,9.39-6.44,14.08-19.31,14.08v-7.86c6.84,0,10.25-2.07,10.25-6.22v-34.79h9.06Z"/>
      <path class="cls-2" d="M225.73,448.4c0-4.9,2.45-7.35,7.35-7.35s7.35,2.45,7.35,7.35-2.45,7.35-7.35,7.35-7.35-2.45-7.35-7.35Z"/>
      <path class="cls-2" d="M264.36,473.18v-48.88h21.88c9.98,0,14.97,4.59,14.97,13.77,0,9.96-6.82,15.99-20.47,18.08l-1.3-8.07c8.2-1.48,12.3-4.73,12.3-9.74,0-4.06-2.03-6.08-6.08-6.08h-12.24v40.91h-9.06Z"/>
      <path class="cls-2" d="M306.33,473.18v-35.89h7.01l1.13,4.58c3.14-3.05,6.47-4.58,9.98-4.58v7.31c-3.37,0-6.39,1.4-9.06,4.2v24.37h-9.06Z"/>
      <path class="cls-2" d="M327.86,455.24c0-12.03,5.92-18.05,17.77-18.05s17.77,6.02,17.77,18.05-5.92,18.01-17.77,18.01-17.73-6-17.77-18.01ZM345.64,466.35c5.81,0,8.72-3.75,8.72-11.25s-2.91-10.97-8.72-10.97-8.72,3.66-8.72,10.97,2.91,11.25,8.72,11.25Z"/>
      <path class="cls-2" d="M402.03,471.03c-5.49,1.44-10.86,2.15-16.1,2.15-11.6,0-17.4-6.22-17.4-18.66,0-11.48,5.67-17.23,17.02-17.23,2.42,0,4.89.57,7.42,1.71v-14.7h9.06v46.72ZM392.97,446.66c-1.87-1.23-4.22-1.85-7.04-1.85-5.63,0-8.44,3.16-8.44,9.47,0,7.5,2.93,11.25,8.78,11.25,2.37,0,4.6-.33,6.7-.99v-17.88Z"/>
      <path class="cls-2" d="M442.88,437.29v35.89h-7.08l-1.09-4.58c-4.12,3.05-8.5,4.58-13.12,4.58-7.34,0-11.01-4.34-11.01-13.02v-22.87h9.06v22.63c0,3.96,1.73,5.95,5.2,5.95,2.94,0,5.94-1.17,8.99-3.52v-25.05h9.06Z"/>
      <path class="cls-2" d="M477.91,472.16c-2.96.68-6.04,1.03-9.23,1.03-12.76,0-19.14-6.21-19.14-18.63,0-11.51,6.38-17.26,19.14-17.26,3.19,0,6.27.34,9.23,1.03v7.18c-2.96-.68-5.81-1.03-8.54-1.03-7.18,0-10.77,3.36-10.77,10.08,0,7.63,3.59,11.45,10.77,11.45,2.73,0,5.58-.34,8.54-1.03v7.18Z"/>
      <path class="cls-2" d="M483.38,431.48h6.7l1.37,5.81h9.02v7.18h-8.03v16.51c0,3.35,1.45,5.02,4.34,5.02h3.69v7.18h-8.07c-6.02,0-9.02-3.22-9.02-9.67v-32.03Z"/>
      <path class="cls-2" d="M521.76,437.29c10.89,0,16.34,5.56,16.34,16.68,0,1.48-.1,2.96-.31,4.44h-23.82c0,5.06,3.71,7.59,11.14,7.59,3.62,0,7.25-.34,10.87-1.03v7.18c-3.17.68-7.02,1.03-11.55,1.03-13.01,0-19.52-6.12-19.52-18.35s5.62-17.53,16.85-17.53ZM513.97,452.13h15.31v-.27c0-4.97-2.51-7.45-7.52-7.45s-7.38,2.58-7.79,7.72Z"/>
      <path class="cls-2" d="M577.2,437.29v35.89h-7.08l-1.09-4.58c-4.12,3.05-8.5,4.58-13.12,4.58-7.34,0-11.01-4.34-11.01-13.02v-22.87h9.06v22.63c0,3.96,1.73,5.95,5.2,5.95,2.94,0,5.94-1.17,8.99-3.52v-25.05h9.06Z"/>
      <path class="cls-2" d="M585.75,473.18v-35.89h7.01l1.13,4.58c3.14-3.05,6.47-4.58,9.98-4.58v7.31c-3.37,0-6.39,1.4-9.06,4.2v24.37h-9.06Z"/>
      <path class="cls-2" d="M623.52,448.4c0-4.9,2.45-7.35,7.35-7.35s7.35,2.45,7.35,7.35-2.45,7.35-7.35,7.35-7.35-2.45-7.35-7.35Z"/>
      <path class="cls-2" d="M701.1,471.13c-4.22,1.6-9,2.39-14.36,2.39-17.55,0-26.32-8.49-26.32-25.46,0-16.06,8.77-24.1,26.32-24.1,5.35,0,10.14.8,14.36,2.39v8.2c-4.22-1.82-8.77-2.73-13.67-2.73-11.74,0-17.6,5.41-17.6,16.24,0,11.74,5.87,17.6,17.6,17.6,4.9,0,9.46-.91,13.67-2.73v8.2Z"/>
      <path class="cls-2" d="M707.09,455.24c0-12.03,5.92-18.05,17.77-18.05s17.77,6.02,17.77,18.05-5.92,18.01-17.77,18.01-17.73-6-17.77-18.01ZM724.86,466.35c5.81,0,8.72-3.75,8.72-11.25s-2.91-10.97-8.72-10.97-8.72,3.66-8.72,10.97,2.91,11.25,8.72,11.25Z"/>
      <path class="cls-2" d="M749.47,473.18v-35.89h7.01l1.06,5.2c3.21-3.46,7.08-5.2,11.59-5.2s7.6,1.64,9.26,4.92c3.67-3.28,7.51-4.92,11.52-4.92,8.25,0,12.37,4.55,12.37,13.64v22.25h-9.06v-22.59c0-3.99-1.8-5.98-5.4-5.98-2.69,0-5.28,1.21-7.76,3.62v24.95h-9.06v-22.49c0-4.06-1.66-6.08-4.99-6.08-2.64,0-5.14,1.21-7.49,3.62v24.95h-9.06Z"/>
      <path class="cls-2" d="M810.82,438.76c4.76-.98,9.8-1.47,15.11-1.47,12.19,0,18.29,5.69,18.29,17.06,0,12.56-5.67,18.83-17.02,18.83-2.42,0-4.85-.57-7.31-1.71v14.7h-9.06v-47.41ZM819.88,463.82c2.26,1.23,4.68,1.85,7.28,1.85,5.4,0,8.1-3.79,8.1-11.38,0-6.45-2.99-9.67-8.96-9.67-2.58,0-4.72.16-6.43.48v18.73Z"/>
      <path class="cls-2" d="M849.34,455.24c0-12.03,5.92-18.05,17.77-18.05s17.77,6.02,17.77,18.05-5.92,18.01-17.77,18.01-17.73-6-17.77-18.01ZM867.11,466.35c5.81,0,8.72-3.75,8.72-11.25s-2.91-10.97-8.72-10.97-8.72,3.66-8.72,10.97,2.91,11.25,8.72,11.25Z"/>
      <path class="cls-2" d="M891.72,471.47v-7.52c3.99,1.6,8.59,2.39,13.81,2.39,3.9,0,5.84-1.25,5.84-3.76s-1.31-3.59-3.93-3.59h-6.49c-7.29,0-10.94-3.59-10.94-10.77s5.32-11.28,15.96-11.28c4.51,0,8.76.68,12.75,2.05v7.52c-3.99-1.59-8.32-2.39-12.99-2.39-4.9,0-7.35,1.25-7.35,3.76s1.42,3.59,4.27,3.59h5.81c7.97,0,11.96,3.59,11.96,10.77s-5.08,11.28-15.24,11.28c-4.99,0-9.48-.68-13.47-2.05Z"/>
      <path class="cls-2" d="M935.82,424.31v7.18h-9.06v-7.18h9.06ZM935.82,437.29v35.89h-9.06v-35.89h9.06Z"/>
      <path class="cls-2" d="M943.85,431.48h6.7l1.37,5.81h9.02v7.18h-8.03v16.51c0,3.35,1.45,5.02,4.34,5.02h3.69v7.18h-8.07c-6.02,0-9.02-3.22-9.02-9.67v-32.03Z"/>
      <path class="cls-2" d="M982.23,437.29c10.89,0,16.34,5.56,16.34,16.68,0,1.48-.1,2.96-.31,4.44h-23.82c0,5.06,3.71,7.59,11.14,7.59,3.62,0,7.25-.34,10.87-1.03v7.18c-3.17.68-7.02,1.03-11.55,1.03-13.01,0-19.52-6.12-19.52-18.35s5.62-17.53,16.85-17.53ZM974.44,452.13h15.31v-.27c0-4.97-2.51-7.45-7.52-7.45s-7.38,2.58-7.79,7.72Z"/>
      <path class="cls-2" d="M1037.67,437.29v35.89h-7.08l-1.09-4.58c-4.12,3.05-8.5,4.58-13.12,4.58-7.34,0-11.01-4.34-11.01-13.02v-22.87h9.06v22.63c0,3.96,1.73,5.95,5.2,5.95,2.94,0,5.94-1.17,8.99-3.52v-25.05h9.06Z"/>
      <path class="cls-2" d="M1046.22,473.18v-35.89h7.01l1.13,4.58c3.14-3.05,6.47-4.58,9.98-4.58v7.31c-3.37,0-6.39,1.4-9.06,4.2v24.37h-9.06Z"/>
    </g>
  </g>
</svg>